<mxfile host="65bd71144e">
    <diagram id="wg21b0fl4tyU6IX1BsFF" name="文件权限标志位">
        <mxGraphModel dx="1087" dy="731" grid="1" gridSize="10" guides="1" tooltips="1" connect="1" arrows="1" fold="1" page="1" pageScale="1" pageWidth="827" pageHeight="1169" math="0" shadow="0">
            <root>
                <mxCell id="RpPC5IvTfhY64-JxXLcO-0"/>
                <mxCell id="RpPC5IvTfhY64-JxXLcO-1" parent="RpPC5IvTfhY64-JxXLcO-0"/>
                <mxCell id="8FYBha6LWA64xwM4sCPk-0" value="" style="rounded=0;whiteSpace=wrap;html=1;fontSize=24;fillColor=#666666;strokeColor=default;" vertex="1" parent="RpPC5IvTfhY64-JxXLcO-1">
                    <mxGeometry x="80" y="42" width="400" height="240" as="geometry"/>
                </mxCell>
                <mxCell id="8FYBha6LWA64xwM4sCPk-1" style="edgeStyle=orthogonalEdgeStyle;rounded=0;html=1;exitX=0.5;exitY=1;exitDx=0;exitDy=0;fontSize=24;endArrow=none;endFill=0;strokeColor=#F0F0F0;" edge="1" parent="RpPC5IvTfhY64-JxXLcO-1" source="8FYBha6LWA64xwM4sCPk-2">
                    <mxGeometry relative="1" as="geometry">
                        <mxPoint x="320" y="242" as="targetPoint"/>
                        <Array as="points">
                            <mxPoint x="180" y="242"/>
                        </Array>
                    </mxGeometry>
                </mxCell>
                <mxCell id="8FYBha6LWA64xwM4sCPk-2" value="&lt;font style=&quot;font-size: 24px&quot;&gt;s&lt;/font&gt;" style="rounded=0;whiteSpace=wrap;html=1;fillColor=none;fontColor=#F0F0F0;strokeColor=#F0F0F0;" vertex="1" parent="RpPC5IvTfhY64-JxXLcO-1">
                    <mxGeometry x="160" y="82" width="40" height="40" as="geometry"/>
                </mxCell>
                <mxCell id="8FYBha6LWA64xwM4sCPk-3" style="edgeStyle=orthogonalEdgeStyle;rounded=0;html=1;exitX=0.5;exitY=1;exitDx=0;exitDy=0;fontSize=24;endArrow=none;endFill=0;strokeColor=#F0F0F0;" edge="1" parent="RpPC5IvTfhY64-JxXLcO-1" source="8FYBha6LWA64xwM4sCPk-4">
                    <mxGeometry relative="1" as="geometry">
                        <mxPoint x="320" y="202" as="targetPoint"/>
                        <Array as="points">
                            <mxPoint x="220" y="202"/>
                        </Array>
                    </mxGeometry>
                </mxCell>
                <mxCell id="8FYBha6LWA64xwM4sCPk-4" value="&lt;span style=&quot;font-size: 24px&quot;&gt;s&lt;/span&gt;" style="rounded=0;whiteSpace=wrap;html=1;fillColor=none;fontColor=#F0F0F0;strokeColor=#F0F0F0;" vertex="1" parent="RpPC5IvTfhY64-JxXLcO-1">
                    <mxGeometry x="200" y="82" width="40" height="40" as="geometry"/>
                </mxCell>
                <mxCell id="8FYBha6LWA64xwM4sCPk-5" style="html=1;exitX=0.5;exitY=1;exitDx=0;exitDy=0;fontSize=24;edgeStyle=orthogonalEdgeStyle;rounded=0;endArrow=none;endFill=0;strokeColor=#F0F0F0;" edge="1" parent="RpPC5IvTfhY64-JxXLcO-1" source="8FYBha6LWA64xwM4sCPk-6">
                    <mxGeometry relative="1" as="geometry">
                        <mxPoint x="320" y="162" as="targetPoint"/>
                        <Array as="points">
                            <mxPoint x="260" y="162"/>
                        </Array>
                    </mxGeometry>
                </mxCell>
                <mxCell id="8FYBha6LWA64xwM4sCPk-6" value="&lt;span style=&quot;font-size: 24px&quot;&gt;t&lt;/span&gt;" style="rounded=0;whiteSpace=wrap;html=1;fillColor=none;fontColor=#F0F0F0;strokeColor=#F0F0F0;" vertex="1" parent="RpPC5IvTfhY64-JxXLcO-1">
                    <mxGeometry x="240" y="82" width="40" height="40" as="geometry"/>
                </mxCell>
                <mxCell id="8FYBha6LWA64xwM4sCPk-7" value="sticky bit" style="text;align=left;verticalAlign=middle;resizable=0;points=[];autosize=1;strokeColor=none;fillColor=none;fontSize=24;fontColor=#F0F0F0;html=1;" vertex="1" parent="RpPC5IvTfhY64-JxXLcO-1">
                    <mxGeometry x="322" y="147" width="120" height="30" as="geometry"/>
                </mxCell>
                <mxCell id="8FYBha6LWA64xwM4sCPk-8" value="setgid" style="text;align=left;verticalAlign=middle;resizable=0;points=[];autosize=1;strokeColor=none;fillColor=none;fontSize=24;html=1;fontColor=#F0F0F0;" vertex="1" parent="RpPC5IvTfhY64-JxXLcO-1">
                    <mxGeometry x="325" y="187" width="80" height="30" as="geometry"/>
                </mxCell>
                <mxCell id="8FYBha6LWA64xwM4sCPk-9" value="setuid" style="text;html=1;align=left;verticalAlign=middle;resizable=0;points=[];autosize=1;strokeColor=none;fillColor=none;fontSize=24;fontColor=#F0F0F0;" vertex="1" parent="RpPC5IvTfhY64-JxXLcO-1">
                    <mxGeometry x="326" y="226" width="80" height="30" as="geometry"/>
                </mxCell>
                <mxCell id="8FYBha6LWA64xwM4sCPk-10" value="bit： 2&amp;nbsp; &amp;nbsp; 1&amp;nbsp; &amp;nbsp; 0" style="text;html=1;align=left;verticalAlign=middle;resizable=0;points=[];autosize=1;strokeColor=none;fillColor=none;fontSize=24;fontColor=#F0F0F0;" vertex="1" parent="RpPC5IvTfhY64-JxXLcO-1">
                    <mxGeometry x="115" y="50" width="160" height="30" as="geometry"/>
                </mxCell>
            </root>
        </mxGraphModel>
    </diagram>
    <diagram id="q6ELv17TOkTf5UgbmfXZ" name="文件权限">
        <mxGraphModel dx="1087" dy="731" grid="1" gridSize="10" guides="1" tooltips="1" connect="1" arrows="1" fold="1" page="1" pageScale="1" pageWidth="827" pageHeight="1169" math="0" shadow="0">
            <root>
                <mxCell id="0"/>
                <mxCell id="1" parent="0"/>
                <mxCell id="16" value="" style="rounded=0;whiteSpace=wrap;html=1;fontSize=24;fillColor=#666666;strokeColor=default;" parent="1" vertex="1">
                    <mxGeometry x="80" y="42" width="400" height="240" as="geometry"/>
                </mxCell>
                <mxCell id="11" style="edgeStyle=orthogonalEdgeStyle;rounded=0;html=1;exitX=0.5;exitY=1;exitDx=0;exitDy=0;fontSize=24;endArrow=none;endFill=0;strokeColor=#F0F0F0;" parent="1" source="5" edge="1">
                    <mxGeometry relative="1" as="geometry">
                        <mxPoint x="320" y="242" as="targetPoint"/>
                        <Array as="points">
                            <mxPoint x="180" y="242"/>
                        </Array>
                    </mxGeometry>
                </mxCell>
                <mxCell id="5" value="&lt;font style=&quot;font-size: 24px&quot;&gt;r&lt;/font&gt;" style="rounded=0;whiteSpace=wrap;html=1;fillColor=none;fontColor=#F0F0F0;strokeColor=#F0F0F0;" parent="1" vertex="1">
                    <mxGeometry x="160" y="82" width="40" height="40" as="geometry"/>
                </mxCell>
                <mxCell id="10" style="edgeStyle=orthogonalEdgeStyle;rounded=0;html=1;exitX=0.5;exitY=1;exitDx=0;exitDy=0;fontSize=24;endArrow=none;endFill=0;strokeColor=#F0F0F0;" parent="1" source="6" edge="1">
                    <mxGeometry relative="1" as="geometry">
                        <mxPoint x="320" y="202" as="targetPoint"/>
                        <Array as="points">
                            <mxPoint x="220" y="202"/>
                        </Array>
                    </mxGeometry>
                </mxCell>
                <mxCell id="6" value="&lt;font style=&quot;font-size: 24px&quot;&gt;w&lt;/font&gt;&lt;span style=&quot;font-family: monospace; font-size: 0px;&quot;&gt;%3CmxGraphModel%3E%3Croot%3E%3CmxCell%20id%3D%220%22%2F%3E%3CmxCell%20id%3D%221%22%20parent%3D%220%22%2F%3E%3CmxCell%20id%3D%222%22%20value%3D%22%26lt%3Bfont%20style%3D%26quot%3Bfont-size%3A%2024px%26quot%3B%26gt%3Br%26lt%3B%2Ffont%26gt%3B%22%20style%3D%22rounded%3D0%3BwhiteSpace%3Dwrap%3Bhtml%3D1%3B%22%20vertex%3D%221%22%20parent%3D%221%22%3E%3CmxGeometry%20x%3D%22160%22%20y%3D%2240%22%20width%3D%2240%22%20height%3D%2240%22%20as%3D%22geometry%22%2F%3E%3C%2FmxCell%3E%3C%2Froot%3E%3C%2FmxGraphModel%3E&lt;/span&gt;" style="rounded=0;whiteSpace=wrap;html=1;fillColor=none;fontColor=#F0F0F0;strokeColor=#F0F0F0;" parent="1" vertex="1">
                    <mxGeometry x="200" y="82" width="40" height="40" as="geometry"/>
                </mxCell>
                <mxCell id="9" style="html=1;exitX=0.5;exitY=1;exitDx=0;exitDy=0;fontSize=24;edgeStyle=orthogonalEdgeStyle;rounded=0;endArrow=none;endFill=0;strokeColor=#F0F0F0;" parent="1" source="7" edge="1">
                    <mxGeometry relative="1" as="geometry">
                        <mxPoint x="320" y="162" as="targetPoint"/>
                        <Array as="points">
                            <mxPoint x="260" y="162"/>
                        </Array>
                    </mxGeometry>
                </mxCell>
                <mxCell id="7" value="&lt;span style=&quot;font-size: 24px&quot;&gt;x&lt;/span&gt;" style="rounded=0;whiteSpace=wrap;html=1;fillColor=none;fontColor=#F0F0F0;strokeColor=#F0F0F0;" parent="1" vertex="1">
                    <mxGeometry x="240" y="82" width="40" height="40" as="geometry"/>
                </mxCell>
                <mxCell id="12" value="可执行(x)" style="text;align=left;verticalAlign=middle;resizable=0;points=[];autosize=1;strokeColor=none;fillColor=none;fontSize=24;fontColor=#F0F0F0;html=1;" parent="1" vertex="1">
                    <mxGeometry x="322" y="147" width="120" height="30" as="geometry"/>
                </mxCell>
                <mxCell id="13" value="可写(w)" style="text;align=left;verticalAlign=middle;resizable=0;points=[];autosize=1;strokeColor=none;fillColor=none;fontSize=24;html=1;fontColor=#F0F0F0;" parent="1" vertex="1">
                    <mxGeometry x="325" y="187" width="100" height="30" as="geometry"/>
                </mxCell>
                <mxCell id="14" value="可读(r)" style="text;html=1;align=left;verticalAlign=middle;resizable=0;points=[];autosize=1;strokeColor=none;fillColor=none;fontSize=24;fontColor=#F0F0F0;" parent="1" vertex="1">
                    <mxGeometry x="326" y="226" width="90" height="30" as="geometry"/>
                </mxCell>
                <mxCell id="15" value="bit： 2&amp;nbsp; &amp;nbsp; 1&amp;nbsp; &amp;nbsp; 0" style="text;html=1;align=left;verticalAlign=middle;resizable=0;points=[];autosize=1;strokeColor=none;fillColor=none;fontSize=24;fontColor=#F0F0F0;" parent="1" vertex="1">
                    <mxGeometry x="115" y="50" width="160" height="30" as="geometry"/>
                </mxCell>
            </root>
        </mxGraphModel>
    </diagram>
</mxfile>